<?xml version="1.0" standalone="no"?>
<!DOCTYPE svg PUBLIC "-//W3C//DTD SVG 20010904//EN"
 "http://www.w3.org/TR/2001/REC-SVG-20010904/DTD/svg10.dtd">
<svg version="1.0" xmlns="http://www.w3.org/2000/svg"
 width="250.000000pt" height="250.000000pt" viewBox="0 0 250.000000 250.000000"
 preserveAspectRatio="xMidYMid meet">
<metadata>
Created by potrace 1.14, written by Peter Selinger 2001-2017
</metadata>
<g transform="translate(0.000000,250.000000) scale(0.100000,-0.100000)"
fill="#000000" stroke="none">
<path d="M447 2136 c-88 -32 -165 -113 -187 -198 -7 -24 -10 -227 -8 -560 3
-521 3 -523 26 -565 28 -54 81 -107 135 -135 l42 -23 795 0 795 0 42 23 c54
28 107 81 135 135 l23 42 0 545 0 545 -23 42 c-28 54 -81 107 -135 135 l-42
23 -780 2 c-639 2 -787 0 -818 -11z m1550 -206 c48 -31 48 -34 48 -530 0 -503
0 -503 -53 -531 -36 -20 -1447 -21 -1483 -1 -54 29 -54 23 -57 497 -2 242 0
459 3 482 6 45 42 89 78 96 12 3 342 4 732 3 603 -1 713 -3 732 -16z"/>
<path d="M1779 1821 c-23 -24 -29 -38 -29 -74 0 -38 5 -49 31 -71 21 -18 42
-26 69 -26 27 0 48 8 69 26 26 22 31 33 31 71 0 62 -40 103 -100 103 -33 0
-48 -6 -71 -29z"/>
<path d="M979 1621 l-29 -29 0 -245 0 -245 31 -26 c20 -17 43 -26 65 -26 41 0
559 205 586 232 25 25 24 97 -2 131 -25 32 -531 237 -586 237 -26 0 -43 -8
-65 -29z m251 -258 c24 -11 30 -17 20 -21 -8 -3 -34 -13 -57 -23 l-43 -18 0
45 c0 50 1 50 80 17z"/>
<path d="M579 521 c-23 -24 -29 -38 -29 -74 0 -38 5 -49 31 -71 l31 -26 638 0
638 0 31 26 c26 22 31 33 31 71 0 36 -6 50 -29 74 l-29 29 -642 0 -642 0 -29
-29z"/>
</g>
</svg>
